<?xml version="1.0" standalone="no"?>
<!DOCTYPE svg PUBLIC "-//W3C//DTD SVG 20010904//EN"
 "http://www.w3.org/TR/2001/REC-SVG-20010904/DTD/svg10.dtd">
<svg version="1.0" xmlns="http://www.w3.org/2000/svg"
 width="300.000000pt" height="300.000000pt" viewBox="0 0 300.000000 300.000000"
 preserveAspectRatio="xMidYMid meet">
<metadata>
Created by potrace 1.15, written by Peter Selinger 2001-2017
</metadata>
<g transform="translate(0.000000,300.000000) scale(0.100000,-0.100000)"
fill="#132e57" stroke="none">
<path d="M1405 2819 c-134 -8 -320 -53 -429 -103 -43 -20 -79 -36 -82 -36 -9
0 -167 -102 -222 -144 -235 -179 -422 -494 -479 -810 -23 -127 -21 -350 5
-482 91 -461 423 -843 867 -996 153 -53 261 -70 435 -71 351 -2 655 119 916
366 203 192 338 442 391 722 22 115 22 346 0 468 -56 309 -230 601 -476 799
-92 74 -124 95 -237 152 -213 107 -431 150 -689 135z m305 -185 c232 -41 435
-148 606 -318 167 -167 276 -372 320 -601 24 -124 24 -346 0 -440 -46 -180
-98 -305 -179 -429 -52 -79 -225 -252 -302 -302 -131 -85 -266 -142 -430 -180
-155 -36 -411 -20 -586 37 -279 91 -517 295 -668 573 -17 32 -30 61 -27 63 3
3 46 -25 96 -62 51 -37 93 -65 95 -63 3 2 30 58 61 123 119 253 155 328 328
689 42 87 76 160 76 162 0 5 -58 -6 -94 -17 -15 -5 -32 -7 -36 -4 -5 3 6 40
24 82 l32 78 64 18 c36 10 126 31 200 47 426 91 737 78 887 -36 41 -31 82
-110 90 -173 8 -72 -22 -204 -64 -281 -34 -60 -161 -200 -182 -200 -5 0 -32
-15 -60 -34 -93 -63 -303 -134 -462 -157 l-86 -13 75 -135 c115 -210 127 -232
161 -289 17 -29 31 -57 31 -62 0 -13 1 -13 67 12 300 112 543 383 624 694 29
111 32 318 6 429 -70 309 -301 579 -608 712 -88 38 -244 82 -299 84 l-35 1 30
7 c40 10 140 3 245 -15z"/>
<path d="M1375 1902 c-37 -7 -42 -12 -70 -68 -16 -33 -45 -96 -64 -140 -19
-43 -44 -101 -57 -129 -62 -138 -84 -188 -84 -191 0 -2 37 -4 83 -4 188 0 388
81 526 213 56 54 101 137 101 185 0 36 -46 106 -79 123 -29 14 -287 22 -356
11z"/>
<path d="M910 966 l-105 -215 78 -30 c115 -46 227 -71 338 -78 l98 -6 -60 114
c-99 188 -234 429 -239 429 -3 0 -52 -96 -110 -214z"/>
</g>
</svg>
